<?xml version="1.0" encoding="utf-8"?>
<!-- Generator: Adobe Illustrator 16.0.0, SVG Export Plug-In . SVG Version: 6.00 Build 0)  -->
<!DOCTYPE svg PUBLIC "-//W3C//DTD SVG 1.1//EN" "http://www.w3.org/Graphics/SVG/1.1/DTD/svg11.dtd">
<svg version="1.1" id="Layer_1" xmlns="http://www.w3.org/2000/svg" xmlns:xlink="http://www.w3.org/1999/xlink" x="0px" y="0px"
	 width="71.26px" height="81.579px" viewBox="0 0 71.26 81.579" enable-background="new 0 0 71.26 81.579" xml:space="preserve">
<path fill="#FFFFFF" d="M58.86,25.866c0,3.658-0.431,6.887-1.286,9.696c-0.849,2.6-2.263,5.041-4.249,7.306
	c-4.508,5.078-10.245,7.621-17.21,7.621c-6.792,0-12.614-2.463-17.459-7.377c-4.833-4.937-7.25-10.854-7.25-17.76
	c0-7.054,2.458-13.038,7.376-17.953C23.709,2.468,29.707,0,36.775,0c3.795,0,7.342,0.771,10.634,2.313
	c3.146,1.542,6.24,4.049,9.282,7.527l-5.221,5.001c-3.992-5.309-8.843-7.956-14.573-7.956c-5.133,0-9.439,1.774-12.926,5.319
	c-3.479,3.489-5.215,7.863-5.215,13.113c0,5.424,1.934,9.89,5.816,13.397c3.628,3.257,7.558,4.883,11.798,4.883
	c3.603,0,6.844-1.21,9.718-3.644c2.874-2.456,4.479-5.389,4.81-8.813h-12.11v-6.879H58.86V25.866z"/>
<path fill="#FFFFFF" d="M4.223,68.46h3.096v0.25c0,0.559-0.068,1.055-0.199,1.486c-0.131,0.398-0.348,0.775-0.657,1.121
	c-0.694,0.781-1.58,1.17-2.65,1.17c-1.051,0-1.945-0.377-2.693-1.131C0.374,70.599,0,69.693,0,68.633
	c0-1.084,0.381-1.999,1.139-2.752c0.758-0.757,1.686-1.136,2.775-1.136c0.584,0,1.13,0.119,1.638,0.347
	c0.488,0.243,0.962,0.63,1.432,1.157L6.18,67.015c-0.615-0.813-1.365-1.218-2.245-1.218c-0.796,0-1.457,0.271-1.995,0.819
	c-0.537,0.535-0.804,1.203-0.804,2.008c0,0.834,0.296,1.525,0.894,2.064c0.563,0.494,1.167,0.748,1.82,0.748
	c0.555,0,1.055-0.188,1.499-0.563c0.444-0.381,0.691-0.834,0.742-1.364H4.223V68.46z"/>
<polygon fill="#FFFFFF" points="18.834,65.939 15.832,65.939 15.832,67.74 18.745,67.74 18.745,68.791 15.832,68.791 15.832,71.294 
	18.834,71.294 18.834,72.339 14.7,72.339 14.7,64.89 18.834,64.89 "/>
<path fill="#FFFFFF" d="M25.906,68.583c0-1.047,0.39-1.945,1.161-2.697c0.769-0.754,1.693-1.131,2.774-1.131
	c1.067,0,1.986,0.381,2.748,1.135c0.766,0.766,1.152,1.672,1.152,2.735c0,1.075-0.386,1.978-1.156,2.728
	c-0.776,0.75-1.707,1.123-2.804,1.123c-0.965,0-1.833-0.33-2.604-1C26.33,70.744,25.906,69.779,25.906,68.583 M27.05,68.597
	c0,0.82,0.275,1.498,0.834,2.031c0.554,0.533,1.19,0.797,1.913,0.797c0.784,0,1.449-0.268,1.991-0.809
	c0.538-0.549,0.809-1.217,0.809-1.999c0-0.798-0.267-1.462-0.799-2c-0.534-0.541-1.192-0.808-1.97-0.808
	c-0.779,0-1.44,0.267-1.974,0.808C27.316,67.152,27.05,67.812,27.05,68.597"/>
<path fill="#FFFFFF" d="M43.66,69.167l2.325,3.172h-1.384l-2.152-3.049h-0.205v3.049h-1.129V64.89h1.329
	c0.992,0,1.71,0.187,2.15,0.555c0.484,0.41,0.729,0.953,0.729,1.627c0,0.533-0.152,0.99-0.458,1.367
	C44.563,68.82,44.154,69.058,43.66,69.167 M42.244,68.308h0.361c1.07,0,1.604-0.41,1.604-1.225c0-0.766-0.521-1.145-1.562-1.145
	h-0.404V68.308z"/>
<path fill="#FFFFFF" d="M56.937,68.46h3.095v0.25c0,0.559-0.062,1.055-0.198,1.486c-0.128,0.398-0.347,0.775-0.652,1.121
	c-0.695,0.781-1.579,1.17-2.654,1.17c-1.046,0-1.944-0.377-2.694-1.131c-0.745-0.758-1.118-1.664-1.118-2.724
	c0-1.084,0.381-1.999,1.141-2.752c0.761-0.757,1.683-1.136,2.773-1.136c0.584,0,1.13,0.119,1.638,0.347
	c0.483,0.243,0.962,0.63,1.432,1.157l-0.804,0.766c-0.615-0.813-1.364-1.218-2.245-1.218c-0.792,0-1.457,0.271-1.994,0.819
	c-0.539,0.535-0.806,1.203-0.806,2.008c0,0.834,0.302,1.525,0.898,2.064c0.559,0.494,1.164,0.748,1.82,0.748
	c0.556,0,1.056-0.188,1.496-0.563c0.439-0.381,0.689-0.834,0.741-1.364h-1.868V68.46z"/>
<polygon fill="#FFFFFF" points="71.26,65.939 68.261,65.939 68.261,67.74 71.175,67.74 71.175,68.791 68.261,68.791 68.261,71.294 
	71.26,71.294 71.26,72.339 67.127,72.339 67.127,64.89 71.26,64.89 "/>
<path fill="#FFFFFF" d="M3.032,81.393H2.348L1.017,79.48H0.783v1.913H0.219v-4.522h0.684c0.401,0,0.833,0.006,1.193,0.211
	c0.378,0.221,0.594,0.647,0.594,1.078c0,0.648-0.432,1.188-1.086,1.266L3.032,81.393z M0.783,79.011h0.18
	c0.575,0,1.199-0.107,1.199-0.826c0-0.708-0.671-0.811-1.229-0.811h-0.15V79.011z"/>
<polygon fill="#FFFFFF" points="7.463,76.871 9.893,76.871 9.893,77.388 8.027,77.388 8.027,78.652 9.838,78.652 9.838,79.168 
	8.027,79.168 8.027,80.877 9.893,80.877 9.893,81.392 7.463,81.392 "/>
<path fill="#FFFFFF" d="M16.493,77.728c-0.167-0.281-0.384-0.426-0.726-0.426c-0.359,0-0.755,0.246-0.755,0.643
	c0,0.354,0.348,0.54,0.63,0.648l0.324,0.125c0.641,0.252,1.121,0.605,1.121,1.361c0,0.821-0.636,1.409-1.445,1.409
	c-0.732,0-1.301-0.54-1.398-1.265l0.57-0.121c-0.006,0.498,0.39,0.857,0.876,0.857s0.833-0.406,0.833-0.881
	c0-0.486-0.389-0.695-0.78-0.857l-0.311-0.133c-0.516-0.221-0.983-0.514-0.983-1.145c0-0.732,0.647-1.17,1.331-1.17
	c0.504,0,0.917,0.246,1.163,0.684L16.493,77.728z"/>
<polygon fill="#FFFFFF" points="22.955,81.392 22.392,81.392 22.392,77.386 21.318,77.386 21.318,76.873 24.029,76.873 
	24.029,77.386 22.955,77.386 "/>
<path fill="#FFFFFF" d="M28.832,80.259l-0.515,1.133H27.71l2.159-4.713l2.159,4.713h-0.606l-0.515-1.133H28.832z M29.869,77.916
	l-0.804,1.828h1.608L29.869,77.916z"/>
<path fill="#FFFFFF" d="M36.73,76.871v2.669c0,0.737,0.222,1.422,1.091,1.422c0.87,0,1.092-0.685,1.092-1.422v-2.669h0.563v2.861
	c0,0.996-0.618,1.756-1.655,1.756s-1.655-0.76-1.655-1.756v-2.861H36.73z"/>
<path fill="#FFFFFF" d="M47.106,81.393h-0.685l-1.331-1.913h-0.233v1.913h-0.563v-4.522h0.684c0.401,0,0.834,0.006,1.192,0.211
	c0.378,0.221,0.595,0.647,0.595,1.078c0,0.648-0.432,1.188-1.086,1.266L47.106,81.393z M44.857,79.011h0.181
	c0.575,0,1.199-0.107,1.199-0.826c0-0.708-0.672-0.811-1.23-0.811h-0.149V79.011z"/>
<path fill="#FFFFFF" d="M52.398,80.259l-0.517,1.133h-0.604l2.158-4.713l2.159,4.713h-0.605l-0.516-1.133H52.398z M53.436,77.916
	l-0.804,1.828h1.607L53.436,77.916z"/>
<polygon fill="#FFFFFF" points="59.967,76.656 63.36,80.212 63.36,76.873 63.925,76.873 63.925,81.579 60.529,78.023 60.529,81.392 
	59.967,81.392 "/>
<polygon fill="#FFFFFF" points="69.968,81.392 69.403,81.392 69.403,77.386 68.329,77.386 68.329,76.873 71.04,76.873 71.04,77.386 
	69.968,77.386 "/>
<g>
</g>
<g>
</g>
<g>
</g>
<g>
</g>
<g>
</g>
<g>
</g>
</svg>
