<?xml version="1.0" encoding="utf-8"?>
<!-- Generator: Adobe Illustrator 16.0.0, SVG Export Plug-In . SVG Version: 6.00 Build 0)  -->
<!DOCTYPE svg PUBLIC "-//W3C//DTD SVG 1.1//EN" "http://www.w3.org/Graphics/SVG/1.1/DTD/svg11.dtd">
<svg version="1.1" id="Layer_1" xmlns="http://www.w3.org/2000/svg" xmlns:xlink="http://www.w3.org/1999/xlink" x="0px" y="0px"
	 width="49px" height="48.03px" viewBox="0 0 49 48.03" enable-background="new 0 0 49 48.03" xml:space="preserve">
<path fill="#E37D46" d="M24.5,0C10.969,0,0,10.969,0,24.5c0,6.151,2.272,11.768,6.016,16.07c0.554-1.343,1.211-2.609,1.893-3.224
	c1.818-1.636,5.545-5.182,6.272-6.817c0.727-1.636,0.188-2.223-0.175-2.585c-0.364-0.364,1.35-0.251,1.35-0.251s0.858-1.518,0-1.6
	c-1.05-0.101-2.357-0.473-3.629-0.746c-1.273-0.272-3-0.727-2.819-1.272c0.182-0.545,2.364-1.272,3-2
	c0.636-0.728,2.817-2.728,2.817-2.728s0.09-3.363-0.091-4.635c-0.182-1.273-0.546-3.183,0.455-4.272
	c1-1.091,6.817-4.363,12.544-3.545c2.454,0.636,2.363,1.999,2.637,2.727c0.272,0.728,0.908,2.728,1.182,3.363
	c0.272,0.637,0.816,2.454,0.816,2.999c2.092,0.455,6.728,0.818,7.092,2.91c-1.545,0.272-2.091,0.09-2.909,0.181
	c-0.818,0.092-1.899,0.721-1.899,0.721s-0.1,1.734-0.373,2.188c-0.272,0.454-1,0.364-1,0.364s0.723,1.246,0.473,1.646
	c-0.248,0.45-1.018,0.627-1.018,0.627s-0.092,0.727,0.091,1.181c0.181,0.455,0.292,0.828-0.071,1.192c0,0.728-0.356,0.709-0.601,1.1
	c-0.249,0.4-0.066,0.695,0.035,1.617c0.065,0.582,0.181,1.363-0.909,1.818c-1.182,0.727-2.182,0.636-2.727,0.817
	c-0.637,0.272-1.818,2.728-1.908,3.273c-0.092,0.544,0.506,1.086,0.859,1.622c1.207,1.829,2.529,4.393,3.891,10.643
	c0.011,0.046,0.018,0.098,0.027,0.146C41.533,45.075,49,35.662,49,24.5C49,10.969,38.031,0,24.5,0z"/>
<g>
</g>
<g>
</g>
<g>
</g>
<g>
</g>
<g>
</g>
<g>
</g>
</svg>
